# This file uses centimeters as units for non-parametric coordinates.

mtllib 2.mtl
g default
v 0.951057 -1.000000 -0.309017
v 0.809018 -1.000000 -0.587786
v 0.587786 -1.000000 -0.809017
v 0.309017 -1.000000 -0.951057
v 0.000000 -1.000000 -1.000000
v -0.309017 -1.000000 -0.951057
v -0.587785 -1.000000 -0.809017
v -0.809017 -1.000000 -0.587785
v -0.951057 -1.000000 -0.309017
v -1.000000 -1.000000 0.000000
v -0.951057 -1.000000 0.309017
v -0.809017 -1.000000 0.587785
v -0.587785 -1.000000 0.809017
v -0.309017 -1.000000 0.951057
v -0.000000 -1.000000 1.000000
v 0.309017 -1.000000 0.951057
v 0.587785 -1.000000 0.809017
v 0.809017 -1.000000 0.587785
v 0.951057 -1.000000 0.309017
v 1.000000 -1.000000 0.000000
v 0.951057 0.329399 -0.309017
v 0.809018 0.329399 -0.587786
v 0.587786 0.329399 -0.809017
v 0.309017 0.329399 -0.951057
v 0.000000 0.329399 -1.000000
v -0.309017 0.329399 -0.951057
v -0.587785 0.329399 -0.809017
v -0.809017 0.329399 -0.587785
v -0.951057 0.329399 -0.309017
v -1.000000 0.329399 0.000000
v -0.951057 0.329399 0.309017
v -0.809017 0.329399 0.587785
v -0.587785 0.329399 0.809017
v -0.309017 0.329399 0.951057
v -0.000000 0.329399 1.000000
v 0.309017 0.329399 0.951057
v 0.587785 0.329399 0.809017
v 0.809017 0.329399 0.587785
v 0.951057 0.329399 0.309017
v 1.000000 0.329399 0.000000
v 0.000000 -1.380558 0.000000
v 0.000000 1.000000 0.000000
v 1.447477 -0.521966 -0.470314
v 1.521966 -0.521966 -0.000000
v 1.447476 -0.521966 0.470314
v 1.231297 -0.521966 0.894589
v 0.894589 -0.521966 1.231297
v 0.470313 -0.521966 1.447476
v -0.000000 -0.521966 1.521965
v -0.470314 -0.521966 1.447476
v -0.894589 -0.521966 1.231297
v -1.231297 -0.521966 0.894589
v -1.447476 -0.521966 0.470314
v -1.521967 -0.521966 -0.000000
v -1.447476 -0.521966 -0.470314
v -1.231297 -0.521966 -0.894589
v -0.894589 -0.521966 -1.231297
v -0.470314 -0.521966 -1.447476
v 0.000000 -0.521966 -1.521966
v 0.470314 -0.521966 -1.447477
v 0.894589 -0.521966 -1.231297
v 1.231297 -0.521966 -0.894589
vt 0.648603 0.107966
vt 0.626409 0.064408
vt 0.591842 0.029841
vt 0.548284 0.007647
vt 0.500000 -0.000000
vt 0.451716 0.007647
vt 0.408159 0.029841
vt 0.373591 0.064409
vt 0.351397 0.107966
vt 0.343750 0.156250
vt 0.351397 0.204534
vt 0.373591 0.248091
vt 0.408159 0.282659
vt 0.451716 0.304853
vt 0.500000 0.312500
vt 0.548284 0.304853
vt 0.591841 0.282659
vt 0.626409 0.248091
vt 0.648603 0.204534
vt 0.656250 0.156250
vt 0.375000 0.312500
vt 0.387500 0.312500
vt 0.400000 0.312500
vt 0.412500 0.312500
vt 0.425000 0.312500
vt 0.437500 0.312500
vt 0.450000 0.312500
vt 0.462500 0.312500
vt 0.475000 0.312500
vt 0.487500 0.312500
vt 0.500000 0.312500
vt 0.512500 0.312500
vt 0.525000 0.312500
vt 0.537500 0.312500
vt 0.550000 0.312500
vt 0.562500 0.312500
vt 0.575000 0.312500
vt 0.587500 0.312500
vt 0.600000 0.312500
vt 0.612500 0.312500
vt 0.625000 0.312500
vt 0.375000 0.687500
vt 0.387500 0.687500
vt 0.400000 0.687500
vt 0.412500 0.687500
vt 0.425000 0.687500
vt 0.437500 0.687500
vt 0.450000 0.687500
vt 0.462500 0.687500
vt 0.475000 0.687500
vt 0.487500 0.687500
vt 0.500000 0.687500
vt 0.512500 0.687500
vt 0.525000 0.687500
vt 0.537500 0.687500
vt 0.550000 0.687500
vt 0.562500 0.687500
vt 0.575000 0.687500
vt 0.587500 0.687500
vt 0.600000 0.687500
vt 0.612500 0.687500
vt 0.625000 0.687500
vt 0.648603 0.795466
vt 0.626409 0.751908
vt 0.591842 0.717341
vt 0.548284 0.695147
vt 0.500000 0.687500
vt 0.451716 0.695147
vt 0.408159 0.717341
vt 0.373591 0.751909
vt 0.351397 0.795466
vt 0.343750 0.843750
vt 0.351397 0.892034
vt 0.373591 0.935591
vt 0.408159 0.970159
vt 0.451716 0.992353
vt 0.500000 1.000000
vt 0.548284 0.992353
vt 0.591841 0.970159
vt 0.626409 0.935591
vt 0.648603 0.892034
vt 0.656250 0.843750
vt 0.500000 0.156250
vt 0.500000 0.843750
vt 0.625000 0.500000
vt 0.375000 0.500000
vt 0.612500 0.500000
vt 0.600000 0.500000
vt 0.587500 0.500000
vt 0.575000 0.500000
vt 0.562500 0.500000
vt 0.550000 0.500000
vt 0.537500 0.500000
vt 0.525000 0.500000
vt 0.512500 0.500000
vt 0.500000 0.500000
vt 0.487500 0.500000
vt 0.475000 0.500000
vt 0.462500 0.500000
vt 0.450000 0.500000
vt 0.437500 0.500000
vt 0.425000 0.500000
vt 0.412500 0.500000
vt 0.400000 0.500000
vt 0.387500 0.500000
vn 0.642335 -0.737461 -0.208706
vn 0.546402 -0.737461 -0.396985
vn 0.808984 0.008977 -0.587762
vn 0.951019 0.008977 -0.309004
vn 0.396985 -0.737460 -0.546402
vn 0.587762 0.008977 -0.808984
vn 0.208707 -0.737460 -0.642335
vn 0.309004 0.008977 -0.951018
vn -0.000000 -0.737460 -0.675391
vn -0.000000 0.008977 -0.999960
vn -0.208707 -0.737460 -0.642335
vn -0.309004 0.008977 -0.951018
vn -0.396985 -0.737461 -0.546402
vn -0.587762 0.008977 -0.808984
vn -0.546402 -0.737461 -0.396985
vn -0.808984 0.008977 -0.587762
vn -0.642334 -0.737461 -0.208707
vn -0.951018 0.008977 -0.309005
vn -0.675390 -0.737461 -0.000000
vn -0.999960 0.008977 -0.000000
vn -0.642334 -0.737461 0.208707
vn -0.951018 0.008977 0.309005
vn -0.546402 -0.737460 0.396985
vn -0.808984 0.008977 0.587762
vn -0.396985 -0.737460 0.546402
vn -0.587762 0.008977 0.808984
vn -0.208707 -0.737460 0.642335
vn -0.309004 0.008977 0.951018
vn 0.000000 -0.737460 0.675391
vn -0.000000 0.008976 0.999960
vn 0.208707 -0.737460 0.642335
vn 0.309004 0.008977 0.951018
vn 0.396985 -0.737460 0.546402
vn 0.587762 0.008977 0.808984
vn 0.546402 -0.737460 0.396985
vn 0.808984 0.008977 0.587762
vn 0.642334 -0.737460 0.208707
vn 0.951018 0.008977 0.309004
vn 0.675391 -0.737460 0.000001
vn 0.999960 0.008977 0.000001
vn 0.287746 -0.934610 -0.209060
vn 0.338266 -0.934610 -0.109909
vn -0.000000 -1.000000 0.000000
vn 0.209060 -0.934610 -0.287746
vn 0.109909 -0.934610 -0.338266
vn -0.000000 -0.934610 -0.355673
vn -0.109909 -0.934610 -0.338266
vn -0.209060 -0.934610 -0.287746
vn -0.287746 -0.934610 -0.209060
vn -0.338266 -0.934610 -0.109909
vn -0.355674 -0.934610 0.000000
vn -0.338266 -0.934610 0.109909
vn -0.287746 -0.934610 0.209060
vn -0.209060 -0.934610 0.287746
vn -0.109909 -0.934610 0.338266
vn 0.000000 -0.934610 0.355674
vn 0.109909 -0.934610 0.338266
vn 0.209060 -0.934610 0.287746
vn 0.287746 -0.934610 0.209060
vn 0.338266 -0.934610 0.109909
vn 0.355674 -0.934610 0.000001
vn 0.529701 0.830539 -0.172110
vn 0.450590 0.830539 -0.327373
vn 0.000000 1.000000 -0.000000
vn 0.327373 0.830539 -0.450590
vn 0.172110 0.830539 -0.529701
vn 0.000000 0.830539 -0.556960
vn -0.172110 0.830539 -0.529701
vn -0.327373 0.830539 -0.450590
vn -0.450591 0.830539 -0.327373
vn -0.529701 0.830539 -0.172110
vn -0.556960 0.830539 0.000000
vn -0.529701 0.830539 0.172110
vn -0.450590 0.830539 0.327373
vn -0.327373 0.830539 0.450591
vn -0.172110 0.830539 0.529701
vn -0.000000 0.830539 0.556960
vn 0.172110 0.830539 0.529701
vn 0.327373 0.830539 0.450590
vn 0.450590 0.830539 0.327373
vn 0.529701 0.830539 0.172110
vn 0.556961 0.830539 0.000001
vn 0.810804 0.522680 -0.263445
vn 0.852529 0.522680 0.000001
vn 0.810804 0.522680 0.263446
vn 0.689710 0.522680 0.501104
vn 0.501104 0.522680 0.689710
vn 0.263445 0.522680 0.810804
vn 0.000000 0.522679 0.852529
vn -0.263445 0.522680 0.810804
vn -0.501104 0.522680 0.689710
vn -0.689710 0.522680 0.501104
vn -0.810803 0.522680 0.263446
vn -0.852529 0.522680 0.000000
vn -0.810803 0.522680 -0.263446
vn -0.689710 0.522680 -0.501104
vn -0.501104 0.522680 -0.689710
vn -0.263445 0.522680 -0.810804
vn -0.000000 0.522679 -0.852529
vn 0.263445 0.522680 -0.810803
vn 0.501104 0.522680 -0.689710
vn 0.689710 0.522680 -0.501104
s 1
g pCylinder1
usemtl initialShadingGroup
f 1/21/1 2/22/2 62/105/3 43/86/4
f 2/22/2 3/23/5 61/104/6 62/105/3
f 3/23/5 4/24/7 60/103/8 61/104/6
f 4/24/7 5/25/9 59/102/10 60/103/8
f 5/25/9 6/26/11 58/101/12 59/102/10
f 6/26/11 7/27/13 57/100/14 58/101/12
f 7/27/13 8/28/15 56/99/16 57/100/14
f 8/28/15 9/29/17 55/98/18 56/99/16
f 9/29/17 10/30/19 54/97/20 55/98/18
f 10/30/19 11/31/21 53/96/22 54/97/20
f 11/31/21 12/32/23 52/95/24 53/96/22
f 12/32/23 13/33/25 51/94/26 52/95/24
f 13/33/25 14/34/27 50/93/28 51/94/26
f 14/34/27 15/35/29 49/92/30 50/93/28
f 15/35/29 16/36/31 48/91/32 49/92/30
f 16/36/31 17/37/33 47/90/34 48/91/32
f 17/37/33 18/38/35 46/89/36 47/90/34
f 18/38/35 19/39/37 45/88/38 46/89/36
f 19/39/37 20/40/39 44/87/40 45/88/38
f 20/40/39 1/41/1 43/85/4 44/87/40
s 2
f 2/2/41 1/1/42 41/83/43
f 3/3/44 2/2/41 41/83/43
f 4/4/45 3/3/44 41/83/43
f 5/5/46 4/4/45 41/83/43
f 6/6/47 5/5/46 41/83/43
f 7/7/48 6/6/47 41/83/43
f 8/8/49 7/7/48 41/83/43
f 9/9/50 8/8/49 41/83/43
f 10/10/51 9/9/50 41/83/43
f 11/11/52 10/10/51 41/83/43
f 12/12/53 11/11/52 41/83/43
f 13/13/54 12/12/53 41/83/43
f 14/14/55 13/13/54 41/83/43
f 15/15/56 14/14/55 41/83/43
f 16/16/57 15/15/56 41/83/43
f 17/17/58 16/16/57 41/83/43
f 18/18/59 17/17/58 41/83/43
f 19/19/60 18/18/59 41/83/43
f 20/20/61 19/19/60 41/83/43
f 1/1/42 20/20/61 41/83/43
s 3
f 21/81/62 22/80/63 42/84/64
f 22/80/63 23/79/65 42/84/64
f 23/79/65 24/78/66 42/84/64
f 24/78/66 25/77/67 42/84/64
f 25/77/67 26/76/68 42/84/64
f 26/76/68 27/75/69 42/84/64
f 27/75/69 28/74/70 42/84/64
f 28/74/70 29/73/71 42/84/64
f 29/73/71 30/72/72 42/84/64
f 30/72/72 31/71/73 42/84/64
f 31/71/73 32/70/74 42/84/64
f 32/70/74 33/69/75 42/84/64
f 33/69/75 34/68/76 42/84/64
f 34/68/76 35/67/77 42/84/64
f 35/67/77 36/66/78 42/84/64
f 36/66/78 37/65/79 42/84/64
f 37/65/79 38/64/80 42/84/64
f 38/64/80 39/63/81 42/84/64
f 39/63/81 40/82/82 42/84/64
f 40/82/82 21/81/62 42/84/64
s 1
f 44/87/40 43/85/4 21/62/83 40/61/84
f 45/88/38 44/87/40 40/61/84 39/60/85
f 46/89/36 45/88/38 39/60/85 38/59/86
f 47/90/34 46/89/36 38/59/86 37/58/87
f 48/91/32 47/90/34 37/58/87 36/57/88
f 49/92/30 48/91/32 36/57/88 35/56/89
f 50/93/28 49/92/30 35/56/89 34/55/90
f 51/94/26 50/93/28 34/55/90 33/54/91
f 52/95/24 51/94/26 33/54/91 32/53/92
f 53/96/22 52/95/24 32/53/92 31/52/93
f 54/97/20 53/96/22 31/52/93 30/51/94
f 55/98/18 54/97/20 30/51/94 29/50/95
f 56/99/16 55/98/18 29/50/95 28/49/96
f 57/100/14 56/99/16 28/49/96 27/48/97
f 58/101/12 57/100/14 27/48/97 26/47/98
f 59/102/10 58/101/12 26/47/98 25/46/99
f 60/103/8 59/102/10 25/46/99 24/45/100
f 61/104/6 60/103/8 24/45/100 23/44/101
f 62/105/3 61/104/6 23/44/101 22/43/102
f 43/86/4 62/105/3 22/43/102 21/42/83
