# This file uses centimeters as units for non-parametric coordinates.

mtllib 4.mtl
g default
v 0.353553 0.000000 -1.356864
v 0.000000 0.000000 -1.503311
v -0.353553 0.000000 -1.356864
v -0.500000 0.828332 0.000000
v -0.353553 0.000000 0.353553
v 0.000000 0.000000 0.500000
v 0.353553 0.000000 0.353553
v 0.500000 0.828332 0.000000
v 0.707107 0.500000 -1.710417
v 0.000000 0.500000 -2.003311
v -0.707107 0.500000 -1.710417
v -1.000000 1.328332 0.000000
v -0.707107 0.500000 0.707107
v 0.000000 0.500000 1.000000
v 0.707107 0.500000 0.707107
v 1.000000 1.328332 0.000000
v 1.060660 0.000000 -2.063971
v 0.000000 0.000000 -2.503310
v -1.060660 0.000000 -2.063971
v -1.500000 0.828332 0.000000
v -1.060660 -0.000000 1.060660
v 0.000000 -0.000000 1.500000
v 1.060660 -0.000000 1.060660
v 1.500000 0.828332 0.000000
v 0.707107 -0.500000 -1.710417
v 0.000000 -0.500000 -2.003310
v -0.707107 -0.500000 -1.710417
v -1.000000 0.328332 0.000000
v -0.707107 -0.500000 0.707107
v 0.000000 -0.500000 1.000000
v 0.707107 -0.500000 0.707107
v 1.000000 0.328332 0.000000
vt 0.000000 1.000000
vt 0.125000 1.000000
vt 0.250000 1.000000
vt 0.375000 1.000000
vt 0.500000 1.000000
vt 0.625000 1.000000
vt 0.750000 1.000000
vt 0.875000 1.000000
vt 1.000000 1.000000
vt 0.000000 0.750000
vt 0.125000 0.750000
vt 0.250000 0.750000
vt 0.375000 0.750000
vt 0.500000 0.750000
vt 0.625000 0.750000
vt 0.750000 0.750000
vt 0.875000 0.750000
vt 1.000000 0.750000
vt 0.000000 0.500000
vt 0.125000 0.500000
vt 0.250000 0.500000
vt 0.375000 0.500000
vt 0.500000 0.500000
vt 0.625000 0.500000
vt 0.750000 0.500000
vt 0.875000 0.500000
vt 1.000000 0.500000
vt 0.000000 0.250000
vt 0.125000 0.250000
vt 0.250000 0.250000
vt 0.375000 0.250000
vt 0.500000 0.250000
vt 0.625000 0.250000
vt 0.750000 0.250000
vt 0.875000 0.250000
vt 1.000000 0.250000
vt 0.000000 0.000000
vt 0.125000 0.000000
vt 0.250000 0.000000
vt 0.375000 0.000000
vt 0.500000 0.000000
vt 0.625000 0.000000
vt 0.750000 0.000000
vt 0.875000 0.000000
vt 1.000000 0.000000
vn -0.281085 0.678598 0.678598
vn -0.281085 0.678598 0.678598
vn -0.281085 0.678598 0.678598
vn -0.281085 0.678598 0.678598
vn 0.281085 0.678598 0.678598
vn 0.281085 0.678598 0.678598
vn 0.281085 0.678598 0.678598
vn 0.281085 0.678598 0.678598
vn 0.779065 0.591479 -0.207874
vn 0.779064 0.591479 -0.207874
vn 0.779065 0.591479 -0.207874
vn 0.779065 0.591479 -0.207874
vn 0.752594 0.484849 0.445560
vn 0.752594 0.484849 0.445561
vn 0.752594 0.484849 0.445560
vn 0.752594 0.484849 0.445560
vn 0.281085 0.678598 -0.678598
vn 0.281085 0.678598 -0.678598
vn 0.281085 0.678598 -0.678598
vn 0.281085 0.678598 -0.678598
vn -0.281085 0.678598 -0.678598
vn -0.281085 0.678598 -0.678598
vn -0.281085 0.678598 -0.678598
vn -0.281085 0.678598 -0.678598
vn -0.752594 0.484849 0.445561
vn -0.752594 0.484849 0.445561
vn -0.752593 0.484849 0.445561
vn -0.752593 0.484849 0.445561
vn -0.779065 0.591479 -0.207874
vn -0.779065 0.591479 -0.207874
vn -0.779065 0.591479 -0.207874
vn -0.779065 0.591479 -0.207874
vn 0.281085 0.678598 -0.678598
vn 0.281085 0.678598 -0.678598
vn 0.281085 0.678598 -0.678598
vn 0.281085 0.678598 -0.678598
vn -0.281085 0.678598 -0.678598
vn -0.281085 0.678598 -0.678598
vn -0.281085 0.678598 -0.678598
vn -0.281085 0.678598 -0.678598
vn -0.614934 0.671218 -0.413910
vn -0.614934 0.671218 -0.413910
vn -0.614934 0.671218 -0.413910
vn -0.614934 0.671218 -0.413910
vn -0.391227 0.585085 0.710364
vn -0.391227 0.585085 0.710364
vn -0.391227 0.585085 0.710364
vn -0.391227 0.585085 0.710364
vn -0.281085 0.678598 0.678598
vn -0.281085 0.678598 0.678598
vn -0.281085 0.678598 0.678598
vn -0.281085 0.678598 0.678598
vn 0.281085 0.678598 0.678598
vn 0.281085 0.678598 0.678598
vn 0.281085 0.678598 0.678598
vn 0.281085 0.678598 0.678598
vn 0.391227 0.585085 0.710364
vn 0.391227 0.585085 0.710364
vn 0.391227 0.585085 0.710364
vn 0.391227 0.585085 0.710364
vn 0.614934 0.671218 -0.413910
vn 0.614934 0.671218 -0.413910
vn 0.614934 0.671218 -0.413910
vn 0.614934 0.671219 -0.413910
vn 0.281085 -0.678598 -0.678598
vn 0.281085 -0.678598 -0.678598
vn 0.281085 -0.678598 -0.678598
vn 0.281085 -0.678598 -0.678598
vn -0.281085 -0.678598 -0.678598
vn -0.281085 -0.678598 -0.678598
vn -0.281085 -0.678598 -0.678598
vn -0.281085 -0.678598 -0.678598
vn -0.775758 -0.619261 0.121310
vn -0.775758 -0.619261 0.121310
vn -0.775758 -0.619261 0.121310
vn -0.775758 -0.619261 0.121310
vn -0.778943 -0.585085 -0.225664
vn -0.778943 -0.585085 -0.225664
vn -0.778943 -0.585085 -0.225664
vn -0.778943 -0.585085 -0.225664
vn -0.281085 -0.678598 0.678598
vn -0.281085 -0.678598 0.678598
vn -0.281085 -0.678598 0.678598
vn -0.281085 -0.678598 0.678598
vn 0.281085 -0.678598 0.678598
vn 0.281085 -0.678598 0.678598
vn 0.281085 -0.678598 0.678598
vn 0.281085 -0.678598 0.678598
vn 0.778943 -0.585085 -0.225664
vn 0.778943 -0.585085 -0.225664
vn 0.778943 -0.585085 -0.225664
vn 0.778943 -0.585085 -0.225664
vn 0.775758 -0.619261 0.121310
vn 0.775758 -0.619261 0.121310
vn 0.775758 -0.619261 0.121310
vn 0.775758 -0.619261 0.121310
vn -0.281085 -0.678598 0.678598
vn -0.281085 -0.678598 0.678598
vn -0.281085 -0.678598 0.678598
vn -0.281085 -0.678598 0.678598
vn 0.281085 -0.678598 0.678598
vn 0.281085 -0.678598 0.678598
vn 0.281085 -0.678598 0.678598
vn 0.281085 -0.678598 0.678598
vn 0.596884 -0.667083 0.445791
vn 0.596884 -0.667083 0.445791
vn 0.596884 -0.667083 0.445791
vn 0.596884 -0.667083 0.445791
vn 0.217105 -0.484849 -0.847223
vn 0.217105 -0.484849 -0.847223
vn 0.217105 -0.484849 -0.847223
vn 0.217105 -0.484849 -0.847223
vn 0.281085 -0.678598 -0.678598
vn 0.281085 -0.678598 -0.678598
vn 0.281085 -0.678598 -0.678598
vn 0.281085 -0.678598 -0.678598
vn -0.281085 -0.678598 -0.678598
vn -0.281085 -0.678598 -0.678598
vn -0.281085 -0.678598 -0.678598
vn -0.281085 -0.678598 -0.678598
vn -0.217105 -0.484849 -0.847223
vn -0.217105 -0.484849 -0.847223
vn -0.217105 -0.484849 -0.847223
vn -0.217105 -0.484849 -0.847223
vn -0.596884 -0.667083 0.445791
vn -0.596884 -0.667083 0.445791
vn -0.596884 -0.667083 0.445791
vn -0.596884 -0.667083 0.445791
s off
g pTorus1
usemtl initialShadingGroup
f 2/2/1 1/1/2 9/10/3 10/11/4
f 3/3/5 2/2/6 10/11/7 11/12/8
f 4/4/9 3/3/10 11/12/11 12/13/12
f 5/5/13 4/4/14 12/13/15 13/14/16
f 6/6/17 5/5/18 13/14/19 14/15/20
f 7/7/21 6/6/22 14/15/23 15/16/24
f 8/8/25 7/7/26 15/16/27 16/17/28
f 1/9/29 8/8/30 16/17/31 9/18/32
f 10/11/33 9/10/34 17/19/35 18/20/36
f 11/12/37 10/11/38 18/20/39 19/21/40
f 12/13/41 11/12/42 19/21/43 20/22/44
f 13/14/45 12/13/46 20/22/47 21/23/48
f 14/15/49 13/14/50 21/23/51 22/24/52
f 15/16/53 14/15/54 22/24/55 23/25/56
f 16/17/57 15/16/58 23/25/59 24/26/60
f 9/18/61 16/17/62 24/26/63 17/27/64
f 18/20/65 17/19/66 25/28/67 26/29/68
f 19/21/69 18/20/70 26/29/71 27/30/72
f 20/22/73 19/21/74 27/30/75 28/31/76
f 21/23/77 20/22/78 28/31/79 29/32/80
f 22/24/81 21/23/82 29/32/83 30/33/84
f 23/25/85 22/24/86 30/33/87 31/34/88
f 24/26/89 23/25/90 31/34/91 32/35/92
f 17/27/93 24/26/94 32/35/95 25/36/96
f 26/29/97 25/28/98 1/37/99 2/38/100
f 27/30/101 26/29/102 2/38/103 3/39/104
f 28/31/105 27/30/106 3/39/107 4/40/108
f 29/32/109 28/31/110 4/40/111 5/41/112
f 30/33/113 29/32/114 5/41/115 6/42/116
f 31/34/117 30/33/118 6/42/119 7/43/120
f 32/35/121 31/34/122 7/43/123 8/44/124
f 25/36/125 32/35/126 8/44/127 1/45/128
